<?xml version="1.0" encoding="iso-8859-1"?>
<!-- Generator: Adobe Illustrator 19.0.0, SVG Export Plug-In . SVG Version: 6.00 Build 0)  -->
<svg version="1.1" id="Layer_1" xmlns="http://www.w3.org/2000/svg" xmlns:xlink="http://www.w3.org/1999/xlink" x="0px" y="0px"
	 viewBox="0 0 288.368 288.368" style="enable-background:new 0 0 288.368 288.368;" xml:space="preserve">
<g>
	<g>
		<g>
			<g id="XMLID_30_">
				<g>
					<path style="fill:#505967;" d="M216.243,164.211c-10.606,6.024-24.063,13.297-39.282,20.698
						c-42.454-12.24-83.627-31.881-113.104-47.773c15.764-1.41,31.945-4.454,47.997-8.619
						C143.287,143.353,180.87,158.027,216.243,164.211z"/>
					<path style="fill:#EAEEEF;" d="M233.674,173.471v33.771c-42.967,23.934-119.096,60.813-184.94,64.146v-29.285
						c8.619-0.481,17.494-1.666,26.53-3.332l0.032,5.639c0.032,3.941,2.82,7.241,6.504,8.074c0.609,0.128,1.282,0.224,1.922,0.192
						c4.614-0.032,8.331-3.813,8.267-8.427l-0.064-8.395c0-0.256-0.064-0.513-0.096-0.769c8.843-2.211,17.719-4.87,26.53-7.818
						l-0.128,4.55c-0.128,3.941,2.531,7.337,6.184,8.299c0.609,0.16,1.282,0.256,1.922,0.288c4.614,0.128,8.459-3.524,8.587-8.138
						l0.224-8.395c0.032-0.865-0.128-1.666-0.352-2.467c8.299-3.14,16.437-6.472,24.319-9.901l-0.032,2.179
						c-0.032,3.941,2.691,7.273,6.344,8.202c0.609,0.128,1.282,0.224,1.954,0.224c4.582,0.064,8.363-3.653,8.395-8.299l0.064-8.395
						c0.032-0.481-0.032-0.961-0.128-1.41c7.433-3.524,14.547-7.017,21.211-10.413c-0.128,3.749,2.275,7.049,5.735,8.17
						c0.609,0.192,1.25,0.32,1.922,0.384c4.614,0.352,8.619-3.076,8.971-7.69l0.641-8.363c0.064-0.545,0.032-1.089-0.032-1.602
						C221.69,180.392,228.259,176.643,233.674,173.471z"/>
					<path style="fill:#EAEEEF;" d="M79.525,95.035c0.32,3.685,2.98,6.6,6.376,7.433c0.865,0.192,1.73,0.256,2.659,0.192
						c4.582-0.417,7.978-4.486,7.594-9.068l-0.705-8.267c10.926-2.659,21.948-5.96,32.842-9.74l0.449,5.992
						c0.288,3.685,2.916,6.632,6.312,7.466c0.865,0.224,1.73,0.288,2.659,0.224c4.582-0.352,8.042-4.39,7.69-8.971l-0.673-8.395
						c-0.032-0.769-0.224-1.474-0.481-2.147c9.068-3.524,17.943-7.241,26.498-11.086l0.609,5.03
						c0.481,3.685,3.236,6.472,6.697,7.145c0.833,0.192,1.73,0.224,2.659,0.096c4.55-0.577,7.818-4.774,7.209-9.356l-1.025-8.331
						c-0.096-0.641-0.256-1.25-0.481-1.826c8.299-3.973,16.117-7.946,23.326-11.727l0.417,3.909
						c0.384,3.653,3.108,6.536,6.536,7.273c0.865,0.16,1.762,0.224,2.659,0.128c4.582-0.513,7.914-4.646,7.401-9.228l-0.897-8.331
						c-0.096-0.769-0.288-1.474-0.577-2.147c5.415-3.012,10.221-5.767,14.354-8.17v33.771
						c-42.967,23.902-119.064,60.813-184.908,64.146V91.767c7.882-0.449,16.02-1.474,24.255-2.948L79.525,95.035z"/>
					<path style="fill:#2D213F;" d="M252.033,1.059c2.659,1.474,4.293,4.261,4.293,7.305v53.412c0,3.044-1.634,5.799-4.229,7.305
						c-27.395,15.476-70.041,37.328-115.763,52.259c34.156,14.835,72.989,27.779,106.824,29.061
						c-0.032,0.032-0.032,0.064-0.032,0.064c0.993,0.16,2.019,0.417,2.948,0.929c2.659,1.474,4.293,4.261,4.293,7.305v53.444
						c0,3.012-1.634,5.767-4.261,7.273c-45.178,25.569-132.008,68.503-205.67,68.952h-0.032c-2.211,0-4.326-0.897-5.896-2.435
						c-1.57-1.57-2.467-3.717-2.467-5.928v-46.011c0-4.582,3.717-8.331,8.299-8.363c35.693-0.16,77.731-14.258,114.097-30.247
						c-44.377-14.899-85.517-35.982-112.175-51.073c-2.627-1.474-4.261-4.261-4.261-7.273v-7.369V83.661v-0.064
						c0-0.064,0.032-0.096,0.032-0.16c0.032-0.609,0.096-1.186,0.224-1.73c0.064-0.256,0.16-0.545,0.256-0.801
						c0.128-0.32,0.256-0.641,0.417-0.961c0.128-0.288,0.288-0.577,0.449-0.865c0.128-0.192,0.288-0.352,0.417-0.513
						c0.449-0.609,0.993-1.121,1.57-1.57c0.16-0.096,0.288-0.224,0.417-0.32c0.192-0.096,0.32-0.256,0.513-0.384
						c0.224-0.096,0.449-0.16,0.673-0.256c0.128-0.032,0.224-0.096,0.352-0.128c1.153-0.449,2.307-0.673,3.524-0.609
						c74.751-0.641,176.961-61.775,196.731-74.046C246.138-0.35,249.406-0.415,252.033,1.059z M85.901,102.469
						c-3.396-0.833-6.056-3.749-6.376-7.433L78.98,88.82c-8.234,1.474-16.373,2.499-24.255,2.948v29.285
						c65.844-3.332,141.941-40.243,184.908-64.146V23.135c-4.133,2.403-8.939,5.159-14.354,8.17
						c0.288,0.673,0.481,1.378,0.577,2.147l0.897,8.331c0.513,4.582-2.82,8.715-7.401,9.228c-0.897,0.096-1.794,0.032-2.659-0.128
						c-3.428-0.737-6.152-3.621-6.536-7.273l-0.417-3.909c-7.209,3.781-15.027,7.754-23.326,11.727
						c0.224,0.577,0.384,1.186,0.481,1.826l1.025,8.331c0.609,4.582-2.659,8.779-7.209,9.356c-0.929,0.128-1.826,0.096-2.659-0.096
						c-3.46-0.673-6.216-3.46-6.697-7.145l-0.609-5.03c-8.555,3.845-17.43,7.562-26.498,11.086c0.256,0.673,0.449,1.378,0.481,2.147
						l0.673,8.395c0.352,4.582-3.108,8.619-7.69,8.971c-0.929,0.064-1.794,0-2.659-0.224c-3.396-0.833-6.024-3.781-6.312-7.466
						l-0.449-5.992c-10.894,3.781-21.916,7.081-32.842,9.74l0.705,8.267c0.384,4.582-3.012,8.651-7.594,9.068
						C87.632,102.725,86.767,102.661,85.901,102.469z M233.674,207.242v-33.771c-5.415,3.172-11.983,6.921-19.513,11.022
						c0.064,0.513,0.096,1.057,0.032,1.602l-0.641,8.363c-0.352,4.614-4.358,8.042-8.971,7.69c-0.673-0.064-1.314-0.192-1.922-0.384
						c-3.46-1.121-5.863-4.422-5.735-8.17c-6.664,3.396-13.778,6.889-21.211,10.413c0.096,0.449,0.16,0.929,0.128,1.41l-0.064,8.395
						c-0.032,4.646-3.813,8.363-8.395,8.299c-0.673,0-1.346-0.096-1.954-0.224c-3.653-0.929-6.376-4.261-6.344-8.202l0.032-2.179
						c-7.882,3.428-16.02,6.761-24.319,9.901c0.224,0.801,0.384,1.602,0.352,2.467l-0.224,8.395
						c-0.128,4.614-3.973,8.267-8.587,8.138c-0.641-0.032-1.314-0.128-1.922-0.288c-3.653-0.961-6.312-4.358-6.184-8.299l0.128-4.55
						c-8.811,2.948-17.687,5.607-26.53,7.818c0.032,0.256,0.096,0.513,0.096,0.769l0.064,8.395c0.064,4.614-3.653,8.395-8.267,8.427
						c-0.641,0.032-1.314-0.064-1.922-0.192c-3.685-0.833-6.472-4.133-6.504-8.074l-0.032-5.639
						c-9.036,1.666-17.911,2.852-26.53,3.332v29.285C114.578,268.056,190.707,231.177,233.674,207.242z M176.961,184.91
						c15.219-7.401,28.677-14.675,39.282-20.698c-35.373-6.184-72.957-20.859-104.389-35.693
						c-16.052,4.165-32.233,7.209-47.997,8.619C93.335,153.029,134.507,172.67,176.961,184.91z"/>
				</g>
			</g>
		</g>
		<path style="fill:#454D5B;" d="M77.161,144.128c11.134-0.82,28.801-3.377,44.463-11.109c-3.31-1.493-6.578-2.996-9.769-4.502
			c-16.052,4.165-32.233,7.209-47.997,8.619C68.058,139.399,72.518,141.744,77.161,144.128z"/>
		<path style="fill:#454D5B;" d="M162.062,180.296c4.937,1.624,9.91,3.175,14.902,4.614c15.219-7.401,28.677-14.675,39.282-20.698
			c-5.239-0.916-10.529-2.038-15.838-3.3C191.748,167.194,177.112,176.476,162.062,180.296z"/>
		<path style="fill:#C5CBCF;" d="M54.726,114.602v6.45c65.844-3.332,141.941-40.243,184.908-64.146v-9.375
			C145.283,101.491,74.668,112.481,54.726,114.602z"/>
		<path style="fill:#C5CBCF;" d="M233.674,199.283c-67.356,45.049-161.082,62.473-184.94,66.321v5.78
			c65.844-3.332,141.973-40.211,184.94-64.146V199.283z"/>
	</g>
</g>
<g>
</g>
<g>
</g>
<g>
</g>
<g>
</g>
<g>
</g>
<g>
</g>
<g>
</g>
<g>
</g>
<g>
</g>
<g>
</g>
<g>
</g>
<g>
</g>
<g>
</g>
<g>
</g>
<g>
</g>
</svg>
